<mxfile host="app.diagrams.net" modified="2022-11-14T08:18:16.811Z" agent="5.0 (Macintosh; Intel Mac OS X 10_15_7) AppleWebKit/605.1.15 (KHTML, like Gecko) Version/16.1 Safari/605.1.15" etag="Di2tfB48pQQLmszuNkvS" version="20.5.3" type="github">
  <diagram id="C5RBs43oDa-KdzZeNtuy" name="Page-1">
    <mxGraphModel dx="832" dy="604" grid="1" gridSize="10" guides="1" tooltips="1" connect="1" arrows="1" fold="1" page="1" pageScale="1" pageWidth="827" pageHeight="1169" math="0" shadow="0">
      <root>
        <mxCell id="WIyWlLk6GJQsqaUBKTNV-0" />
        <mxCell id="WIyWlLk6GJQsqaUBKTNV-1" parent="WIyWlLk6GJQsqaUBKTNV-0" />
        <mxCell id="AKl1cT7ckRawadSQ2MN6-6" style="edgeStyle=orthogonalEdgeStyle;rounded=0;orthogonalLoop=1;jettySize=auto;html=1;entryX=0;entryY=0.5;entryDx=0;entryDy=0;" edge="1" parent="WIyWlLk6GJQsqaUBKTNV-1" source="AKl1cT7ckRawadSQ2MN6-0" target="AKl1cT7ckRawadSQ2MN6-5">
          <mxGeometry relative="1" as="geometry" />
        </mxCell>
        <mxCell id="AKl1cT7ckRawadSQ2MN6-0" value="代码仓库" style="shape=cylinder3;whiteSpace=wrap;html=1;boundedLbl=1;backgroundOutline=1;size=15;" vertex="1" parent="WIyWlLk6GJQsqaUBKTNV-1">
          <mxGeometry x="60" y="260" width="60" height="80" as="geometry" />
        </mxCell>
        <mxCell id="AKl1cT7ckRawadSQ2MN6-9" style="edgeStyle=orthogonalEdgeStyle;rounded=0;orthogonalLoop=1;jettySize=auto;html=1;" edge="1" parent="WIyWlLk6GJQsqaUBKTNV-1" source="AKl1cT7ckRawadSQ2MN6-5" target="AKl1cT7ckRawadSQ2MN6-8">
          <mxGeometry relative="1" as="geometry" />
        </mxCell>
        <mxCell id="AKl1cT7ckRawadSQ2MN6-5" value="词法解析" style="shape=parallelogram;html=1;strokeWidth=2;perimeter=parallelogramPerimeter;whiteSpace=wrap;rounded=1;arcSize=12;size=0.23;" vertex="1" parent="WIyWlLk6GJQsqaUBKTNV-1">
          <mxGeometry x="200" y="270" width="100" height="60" as="geometry" />
        </mxCell>
        <mxCell id="AKl1cT7ckRawadSQ2MN6-16" style="edgeStyle=orthogonalEdgeStyle;rounded=0;orthogonalLoop=1;jettySize=auto;html=1;entryX=0;entryY=0.5;entryDx=0;entryDy=0;entryPerimeter=0;" edge="1" parent="WIyWlLk6GJQsqaUBKTNV-1" source="AKl1cT7ckRawadSQ2MN6-8" target="AKl1cT7ckRawadSQ2MN6-14">
          <mxGeometry relative="1" as="geometry" />
        </mxCell>
        <mxCell id="AKl1cT7ckRawadSQ2MN6-8" value="函数原始信息" style="strokeWidth=2;html=1;shape=mxgraph.flowchart.multi-document;whiteSpace=wrap;" vertex="1" parent="WIyWlLk6GJQsqaUBKTNV-1">
          <mxGeometry x="380" y="270" width="88" height="60" as="geometry" />
        </mxCell>
        <mxCell id="AKl1cT7ckRawadSQ2MN6-21" style="edgeStyle=orthogonalEdgeStyle;rounded=0;orthogonalLoop=1;jettySize=auto;html=1;entryX=0;entryY=0.5;entryDx=0;entryDy=0;entryPerimeter=0;" edge="1" parent="WIyWlLk6GJQsqaUBKTNV-1" source="AKl1cT7ckRawadSQ2MN6-10" target="AKl1cT7ckRawadSQ2MN6-20">
          <mxGeometry relative="1" as="geometry" />
        </mxCell>
        <mxCell id="AKl1cT7ckRawadSQ2MN6-10" value="规范化处理" style="shape=parallelogram;html=1;strokeWidth=2;perimeter=parallelogramPerimeter;whiteSpace=wrap;rounded=1;arcSize=12;size=0.23;" vertex="1" parent="WIyWlLk6GJQsqaUBKTNV-1">
          <mxGeometry x="750" y="350" width="100" height="60" as="geometry" />
        </mxCell>
        <mxCell id="AKl1cT7ckRawadSQ2MN6-17" style="edgeStyle=orthogonalEdgeStyle;rounded=0;orthogonalLoop=1;jettySize=auto;html=1;" edge="1" parent="WIyWlLk6GJQsqaUBKTNV-1" source="AKl1cT7ckRawadSQ2MN6-14" target="AKl1cT7ckRawadSQ2MN6-10">
          <mxGeometry relative="1" as="geometry" />
        </mxCell>
        <mxCell id="AKl1cT7ckRawadSQ2MN6-19" style="edgeStyle=orthogonalEdgeStyle;rounded=0;orthogonalLoop=1;jettySize=auto;html=1;entryX=0;entryY=0.5;entryDx=0;entryDy=0;" edge="1" parent="WIyWlLk6GJQsqaUBKTNV-1" source="AKl1cT7ckRawadSQ2MN6-14" target="AKl1cT7ckRawadSQ2MN6-18">
          <mxGeometry relative="1" as="geometry" />
        </mxCell>
        <mxCell id="AKl1cT7ckRawadSQ2MN6-14" value="信息是否可用" style="strokeWidth=2;html=1;shape=mxgraph.flowchart.decision;whiteSpace=wrap;" vertex="1" parent="WIyWlLk6GJQsqaUBKTNV-1">
          <mxGeometry x="560" y="250" width="100" height="100" as="geometry" />
        </mxCell>
        <mxCell id="AKl1cT7ckRawadSQ2MN6-18" value="丢弃" style="shape=parallelogram;html=1;strokeWidth=2;perimeter=parallelogramPerimeter;whiteSpace=wrap;rounded=1;arcSize=12;size=0.23;" vertex="1" parent="WIyWlLk6GJQsqaUBKTNV-1">
          <mxGeometry x="750" y="200" width="100" height="60" as="geometry" />
        </mxCell>
        <mxCell id="AKl1cT7ckRawadSQ2MN6-20" value="规范化函数信息" style="strokeWidth=2;html=1;shape=mxgraph.flowchart.multi-document;whiteSpace=wrap;" vertex="1" parent="WIyWlLk6GJQsqaUBKTNV-1">
          <mxGeometry x="910" y="350" width="88" height="60" as="geometry" />
        </mxCell>
      </root>
    </mxGraphModel>
  </diagram>
</mxfile>
